<svg xmlns="http://www.w3.org/2000/svg" viewBox="0 0 250 42">
    <g fill="none" fill-rule="nonzero">
        <path fill="#008AC9" d="M45.561 18.374c0-.848-.409-1.29-1.23-1.323h-4.21a1.529 1.529 0 0 0-1.137.493c-.29.316-.428.738-.38 1.161v7.41c-.055.452.105.905.434 1.228.328.322.79.479 1.25.425h3.875c.383.007.749-.157.994-.446.268-.214.418-.539.404-.877v-8.07zm-12.415-1.058a6.528 6.528 0 0 1 1.23-4.25 5.475 5.475 0 0 1 1.684-1.026 4.891 4.891 0 0 1 1.954-.463h7.75c3.369 0 5.104 1.84 5.205 5.524v11.246a4.61 4.61 0 0 1-1.516 3.308 4.998 4.998 0 0 1-3.555 1.488H38.57v8.203h-5.424v-24.03zM60.79 26.66c0 .308.168.59.438.744.269.233.618.358.977.348h4.178c.943 0 1.431-.364 1.516-1.075v-1.654c0-.827-.506-1.257-1.516-1.257h-4.195c-.394-.04-.79.047-1.129.248a1.63 1.63 0 0 0-.286 1.174l.017 1.472zm7.041-8.468c0-.81-.455-1.224-1.516-1.19H55.45v-5.425h12.297c3.583.088 5.374 1.791 5.374 5.11v11.428a5.253 5.253 0 0 1-1.365 3.59 4.572 4.572 0 0 1-3.554 1.488H60.79c-3.617 0-5.453-1.626-5.509-4.88v-4.431c0-3.374 1.752-5.09 5.256-5.144h7.227l.067-.546zM88.433 35.84a1.7 1.7 0 0 0 1.095-.447c.273-.213.434-.534.438-.876v-1.307h-6.94a5.721 5.721 0 0 1-2.173-.347 5.059 5.059 0 0 1-1.685-1.125 5.478 5.478 0 0 1-1.162-1.802 5.628 5.628 0 0 1-.37-2.2V11.577h5.424v14.421c0 1.158.488 1.654 1.516 1.654h3.706c.437.007.86-.153 1.18-.446.265-.169.448-.438.504-.744V11.577h5.374v23.865a6.616 6.616 0 0 1-1.381 4.25 4.703 4.703 0 0 1-3.69 1.654H77.62V35.84H88.45h-.017zm11.186-8.104h9.67c.892 0 1.347-.364 1.38-1.042v-.496a1.06 1.06 0 0 0-.134-.48c-.219-.413-.489-.628-.809-.628h-4.817a5.391 5.391 0 0 1-3.656-1.489 4.092 4.092 0 0 1-1.583-3.158v-4.003c.067-3.154 1.814-4.774 5.239-4.862h11.202v5.474h-9.417c-1.112 0-1.684.347-1.684 1.009v.53c0 .694.56 1.041 1.684 1.041h4.767a4.567 4.567 0 0 1 3.269 1.489 4.818 4.818 0 0 1 1.415 3.307v4.02a5.249 5.249 0 0 1-1.517 3.307 4.371 4.371 0 0 1-1.516 1.141 6.289 6.289 0 0 1-2.139.298H99.619v-5.458zm25.841-1.075a.84.84 0 0 0 .438.744c.268.235.618.36.977.348h4.161c.943 0 1.415-.364 1.516-1.075v-1.654c0-.827-.505-1.257-1.516-1.257h-4.16a1.847 1.847 0 0 0-1.113.248 1.63 1.63 0 0 0-.286 1.174l-.017 1.472zm7.059-8.468c0-.81-.472-1.224-1.517-1.19H120.12v-5.425h12.297c3.572.055 5.391 1.758 5.458 5.11v11.428a5.286 5.286 0 0 1-1.364 3.59 4.571 4.571 0 0 1-3.538 1.488h-7.429c-3.616 0-5.446-1.626-5.491-4.88v-4.431c0-3.374 1.752-5.09 5.256-5.144h7.226l-.016-.546zm9.77-9.757a4.499 4.499 0 0 1 1.685-3.556 6.307 6.307 0 0 1 4.16-1.39h3.37v5.26h-2.022a1.55 1.55 0 0 0-1.244.432c-.327.321-.489.77-.44 1.222v1.174h3.84v5.474h-3.908v16.24h-5.441V8.436zm24.713 9.757v-.132a.838.838 0 0 0-.354-.695 1.606 1.606 0 0 0-.944-.248h-3.773c-.43-.02-.852.122-1.18.397-.348.213-.558.59-.555.993v2.166l6.806-2.48zm-6.739 7.74v.348c-.021.378.105.751.354 1.042.11.291.39.488.708.496h11.185v5.474h-11.792a8.314 8.314 0 0 1-2.527-.298 4.544 4.544 0 0 1-1.684-1.042 4.56 4.56 0 0 1-1.213-1.786 7.754 7.754 0 0 1-.337-2.514V16.538c-.034-3.307 1.684-4.961 5.155-4.961h7.344c3.37 0 5.054 1.741 5.054 5.226v4.333l-12.247 4.796zm23.719 7.343a11.49 11.49 0 0 1-2.257-.215 4.84 4.84 0 0 1-2.14-.992 5.078 5.078 0 0 1-1.516-2.133 7.287 7.287 0 0 1-.438-2.647v-10.27c-.03-.72.062-1.441.27-2.133a4.567 4.567 0 0 1 1.145-1.853 5.066 5.066 0 0 1 2.038-1.273 9.704 9.704 0 0 1 2.325-.248h8.305v1.273h-8.12a5.792 5.792 0 0 0-3.369.877 3.815 3.815 0 0 0-1.263 3.307V27.19c0 .708.114 1.411.337 2.084a3.715 3.715 0 0 0 2.897 2.58c.631.134 1.275.2 1.92.199h7.75v1.273h-7.817l-.067-.05zm29.092-13.18h-10.899a4.202 4.202 0 0 0-3.015 1.19 4.399 4.399 0 0 0-1.129 3.192v3.308c.004.557.078 1.113.22 1.653a2.687 2.687 0 0 0 1.027 1.489 4.82 4.82 0 0 0 3.133 1.141h6.604c2.762 0 4.16-1.488 4.16-4.283l-.1-7.69zm1.297 7.408c.006.731-.05 1.462-.168 2.184a4.935 4.935 0 0 1-1.095 1.984 5.511 5.511 0 0 1-4.228 1.654h-6.486a5.79 5.79 0 0 1-4.11-1.488 5.178 5.178 0 0 1-1.685-4.069V24.46c0-3.716 1.882-5.618 5.644-5.705h10.798v-1.489a4.902 4.902 0 0 0-1.045-3.126 3.26 3.26 0 0 0-1.516-1.174 8.143 8.143 0 0 0-2.021-.231h-11.792v-1.357h11.219c.917.037 1.83.148 2.729.331a3.24 3.24 0 0 1 1.18.496c.449.262.838.612 1.145 1.026a6.734 6.734 0 0 1 1.516 4.449l-.085 9.823zM226.568 12.9c-3.02.055-4.532 1.675-4.532 4.862v15.63h-1.297V17.646c-.055-4.102 1.932-6.153 5.963-6.153h1.517v1.274h-1.685l.034.132zm21.865-.132h-10.225a7.972 7.972 0 0 0-1.988.231 3.547 3.547 0 0 0-1.802 1.108 3.776 3.776 0 0 0-1.028 1.654c-.2.642-.28 1.315-.236 1.985v9.923a3.627 3.627 0 0 0 1.516 3.39 5.962 5.962 0 0 0 1.685.645 7.92 7.92 0 0 0 2.005.232h4.531a6.83 6.83 0 0 0 4.11-1.141 4.267 4.267 0 0 0 1.685-3.722l-.253-14.305zm1.297 14.438c-.112 4.123-2.358 6.147-6.738 6.07h-4.818c-.916.01-1.83-.074-2.729-.249a5.187 5.187 0 0 1-2.29-1.604 4.929 4.929 0 0 1-1.096-2.117 7.934 7.934 0 0 1-.337-2.381v-9.278c.056-4.19 2.207-6.269 6.452-6.235h10.192v-7.03h1.297l.067 22.824z"/>
        <path fill="#E3001B" d="M3.043 10.717a7.023 7.023 0 0 0-1.685 1.075 15.117 15.117 0 0 1 0-1.555C1.804 4.686 6.458.367 12.13.244 17.8.12 22.645 4.23 23.342 9.758c.097.69.131 1.387.101 2.084a5.971 5.971 0 0 0-3.015-1.489c-.82-3.732-4.18-6.396-8.07-6.396-3.888 0-7.25 2.664-8.068 6.396-.44.096-.87.234-1.28.414m15.8.81H5.57a4.892 4.892 0 0 0-1.971.446 5.492 5.492 0 0 0-1.685 1.026 6.528 6.528 0 0 0-1.23 4.267v10.17a6.53 6.53 0 0 0 1.264 4.251c.49.447 1.061.8 1.685 1.042a5 5 0 0 0 1.97.447h13.241c3.37 0 5.104-1.841 5.205-5.524V17.084c-.067-3.671-1.814-5.507-5.239-5.507"/>
    </g>
</svg>
