<svg xmlns="http://www.w3.org/2000/svg" viewBox="0 0 143 74">
    <g fill="none" fill-rule="nonzero">
        <path fill="#000" d="M24.096 60.984c-1.286 0-1.92 1.081-1.92 2.884 0 1.802.73 3.074 1.92 3.074s1.92-1.272 1.92-2.885c0-1.612-.46-3.073-1.92-3.073zm24.096-.55c-.922 0-1.651.91-1.92 2.523h3.648c0-1.803-.806-2.524-1.728-2.524zm23.366.72c-.787 0-1.518.41-1.92 1.082v4.326c.407.165.849.232 1.287.19 1.286 0 2.38-.911 2.38-3.074-.095-1.613-.652-2.524-1.747-2.524zm23.732-.19c-1.287 0-1.92 1.082-1.92 2.885 0 1.802.73 3.074 1.92 3.074s1.92-1.272 1.92-2.885c0-1.612-.634-3.054-1.901-3.054l-.02-.02zm22.828-.55c-.921 0-1.65.911-1.92 2.524h3.476c.096-1.784-.461-2.505-1.556-2.505v-.019zm-34.694.55c-1.286 0-1.92 1.082-1.92 2.885 0 1.802.73 3.074 1.92 3.074s1.92-1.272 1.92-2.885c0-1.612-.634-3.054-1.92-3.054v-.02zm54.048 8.672a10.604 10.604 0 0 1-4.57-1.082l.365-2.523a9.392 9.392 0 0 0 4.205 1.271c.922 0 1.46-.36 1.46-.91 0-.551-.366-.722-1.92-1.272-2.746-.721-4.014-1.442-4.014-3.605 0-2.163 1.46-3.434 4.205-3.434 1.45.022 2.88.332 4.205.91l-.365 2.524a7.63 7.63 0 0 0-3.648-1.082c-.73 0-1.094.36-1.094.721 0 .36.365.721 1.92 1.082 2.918.72 4.013 1.632 4.013 3.605-.154 2.467-1.652 3.795-4.762 3.795zm-9.12-6.319v6.13H124.8V58.44h2.918l.365 2.163a3.837 3.837 0 0 1 3.283-2.353l.557 3.435a5.287 5.287 0 0 0-3.571 1.65v-.019zm-19.2 6.319l-3.283-5.237v5.047h-3.456V53.773l3.475-.55v9.734l2.918-4.516h3.648l-3.475 5.047 3.648 5.598-3.475.55zm-13.882 0a5.271 5.271 0 0 1-3.94-1.672 5.142 5.142 0 0 1-1.359-4.02 5.237 5.237 0 0 1 2.51-4.922 5.372 5.372 0 0 1 5.578 0 5.237 5.237 0 0 1 2.51 4.922 5.142 5.142 0 0 1-1.358 4.02 5.271 5.271 0 0 1-3.94 1.672zm-11.865 0a5.271 5.271 0 0 1-3.941-1.672 5.142 5.142 0 0 1-1.358-4.02 5.237 5.237 0 0 1 2.51-4.922 5.372 5.372 0 0 1 5.577 0 5.237 5.237 0 0 1 2.511 4.922 5.237 5.237 0 0 1-1.393 3.988 5.367 5.367 0 0 1-3.906 1.704zm-12.365 0a17.47 17.47 0 0 1-4.742-.721v-15.18l3.475-.55v6.49a4.145 4.145 0 0 1 2.918-1.443c2.189 0 4.013 1.632 4.013 5.408a5.273 5.273 0 0 1-1.4 4.319 5.41 5.41 0 0 1-4.264 1.677zm-10.042 0c-.921 2.884-2.38 3.795-4.742 3.795a2.387 2.387 0 0 1-1.286-.19l-.365-2.713c.407.165.848.231 1.286.19a1.924 1.924 0 0 0 1.92-1.082l.192-.36L53.99 58.44l3.648-.36 2.19 7.039 1.92-6.85h3.282l-4.032 11.366zm-7.852-4.877h-6.778c-.002.69.3 1.346.828 1.798a2.42 2.42 0 0 0 1.918.555 7.107 7.107 0 0 0 3.648-1.081l.364 2.277a8.851 8.851 0 0 1-4.377 1.271 5.277 5.277 0 0 1-4.188-1.529 5.144 5.144 0 0 1-1.476-4.163 5.142 5.142 0 0 1 1.358-4.02 5.271 5.271 0 0 1 3.941-1.673c3.475 0 4.934 2.524 4.934 5.693a1.879 1.879 0 0 0-.192.891l.02-.019zm-15.36 4.687v-6.83c0-.722-.365-1.272-1.095-1.272a2.546 2.546 0 0 0-1.92.91v7.211h-3.36V58.46h3.149l.192 1.442a5.027 5.027 0 0 1 3.475-1.897c1.92 0 3.11 1.27 3.11 3.434v7.76h-3.551v.247zm-13.69.19a5.271 5.271 0 0 1-3.94-1.672 5.142 5.142 0 0 1-1.36-4.02 5.237 5.237 0 0 1 2.511-4.922 5.372 5.372 0 0 1 5.578 0 5.237 5.237 0 0 1 2.51 4.922 5.047 5.047 0 0 1-1.321 4.053 5.176 5.176 0 0 1-3.978 1.639zm-10.406-.19v-6.83c0-.722-.365-1.272-1.095-1.272a2.913 2.913 0 0 0-1.92.91v7.211H7.296v-6.85c0-.72-.365-1.27-1.094-1.27a2.913 2.913 0 0 0-1.92.91v7.21H.922V58.46h3.09l.193 1.442a4.429 4.429 0 0 1 3.475-1.897 2.648 2.648 0 0 1 2.746 1.897 5.027 5.027 0 0 1 3.475-1.897c1.92 0 3.11 1.27 3.11 3.434v7.76H13.69v.247zm102.777-4.687c-.001.69.3 1.346.828 1.798a2.42 2.42 0 0 0 1.918.555c1.3-.019 2.569-.393 3.667-1.081l.346 2.277a8.851 8.851 0 0 1-4.378 1.271 5.277 5.277 0 0 1-4.187-1.529 5.144 5.144 0 0 1-1.477-4.163 5.142 5.142 0 0 1 1.358-4.02 5.271 5.271 0 0 1 3.941-1.673c3.475 0 4.935 2.524 4.935 5.693v.91l-6.95-.038z"/>
        <path fill="#862165" d="M101.76 11.555c-3.181 0-5.76-2.548-5.76-5.692S98.579.171 101.76.171c3.181 0 5.76 2.548 5.76 5.692-.127 3.09-2.633 5.566-5.76 5.692zM57.331 14.61h13.882a51.567 51.567 0 0 1-8.583 15.882s6.202 11.005 7.68 16.963H55.68a47.735 47.735 0 0 0-5.3-13.168v13.149H38.4V5.047l12.058-2.353v23.472A42.602 42.602 0 0 0 57.33 14.61zm31.757-.531c1.04 0 2.08.064 3.11.19v9.487c-6.93.19-7.68 2.713-7.68 8.481v14.971H72.653V28.993c.192-9.696 5.664-14.554 16.435-14.914zm-71.04 5.237c10.963.72 17.28 5.958 17.28 14.25 0 7.21-5.76 14.44-18.797 14.44A58.618 58.618 0 0 1 .826 46.107v-10.38a36.86 36.86 0 0 0 13.152 2.524c4.742 0 7.488-1.631 7.488-4.155 0-3.245-3.476-3.434-4.743-3.434C1.651 29.58 0 20.758 0 16.963c0-6.49 4.742-14.25 17.894-14.25a45.65 45.65 0 0 1 15.36 2.353h.192v10.265h-.192a77.448 77.448 0 0 1-3.11-1.271 41.973 41.973 0 0 0-10.598-1.897c-1.92 0-6.759 0-6.759 3.794.365 3.017 3.821 3.17 5.28 3.34l-.019.019zm77.798 28.12V14.61h11.674v32.826H95.846zm33.773-42.75l11.693-2.162v44.741h-11.693V4.687zm-17.165 0l11.693-2.162v44.741h-11.693V4.687z"/>
    </g>
</svg>
