<svg viewBox="0 0 118 29" xmlns="http://www.w3.org/2000/svg"><g fill="none" fill-rule="evenodd"><path d="M16.57 13.35c-.157-1.52-1.472-2.656-3-2.59-1.62-.133-3.076.99-3.36 2.59h6.36zm-6.3 3c.07.9.61 1.693 1.42 2.09 1.193.622 2.592.72 3.86.27 1-.3 1.9-.71 2.87-1 .34-.113.702-.157 1.06-.13.565.023 1.08.337 1.356.83.277.493.28 1.095.004 1.59-.396.79-1.044 1.427-1.84 1.81-1.516.75-3.18 1.157-4.87 1.19-1.602.084-3.197-.26-4.62-1-2.996-1.464-4.696-4.703-4.2-8 .467-3.406 3.083-6.12 6.47-6.71 2.797-.583 5.7.29 7.71 2.32 1.145 1.06 1.857 2.506 2 4.06.118.638-.05 1.295-.46 1.798-.41.502-1.02.8-1.67.812-.372.046-.746.07-1.12.07H10.27zM41 15.2c.112.574.265 1.14.46 1.69.406 1.132 1.468 1.895 2.67 1.92 1.137.11 2.228-.475 2.77-1.48.84-1.414.814-3.182-.07-4.57-.542-.942-1.576-1.49-2.66-1.41-1.172-.02-2.24.666-2.71 1.74-.295.67-.464 1.39-.5 2.12l.04-.01zm11.53.12c-.016 2.072-.86 4.052-2.348 5.495-1.487 1.444-3.49 2.23-5.562 2.185-1.802.1-3.59-.36-5.12-1.32-2.462-1.54-3.823-4.354-3.5-7.24.257-4.196 3.798-7.43 8-7.31 1.886-.114 3.755.407 5.31 1.48 2.14 1.552 3.347 4.08 3.21 6.72l.01-.01zM30.72 7.18c1.197-.027 2.386.213 3.48.7.492.24.93.58 1.28 1 .507.602.555 1.465.12 2.12-.42.72-1.254 1.09-2.07.92-.423-.072-.838-.182-1.24-.33-.87-.327-1.814-.413-2.73-.25-1.48.317-2.542 1.617-2.56 3.13-.048.672.012 1.347.18 2 .46 1.562 2.015 2.534 3.62 2.26.61-.06 1.2-.26 1.8-.37.537-.15 1.093-.222 1.65-.21.62.1 1.148.51 1.397 1.088.25.577.186 1.242-.167 1.762-.424.56-1.005.982-1.67 1.21-2.58 1.102-5.522.977-8-.34-2.5-1.35-3.988-4.033-3.81-6.87-.09-2.688 1.29-5.212 3.6-6.59 1.566-.895 3.36-1.316 5.16-1.21l-.04-.02z" fill="#003466"/><path d="M92.21 28.88h-.06c-.64-.13-1.185-.55-1.47-1.14-.288-.587-.283-1.275.01-1.86.43-1.06 1-2.07 1.5-3.1.302-.42.52-.896.64-1.4-.094-.496-.292-.966-.58-1.38-1.39-3-2.79-6-4.16-9-.21-.443-.334-.92-.37-1.41-.057-1.015.62-1.924 1.61-2.16 1.035-.388 2.2.036 2.74 1 .6 1.23 1.11 2.51 1.64 3.78.53 1.27 1 2.39 1.49 3.59 0 .1.09.18.16.32l2-4.83.9-2.14c.067-.16.143-.318.23-.47.73-1.37 1.91-1.66 3.39-1 .885.484 1.27 1.552.9 2.49-.31.897-.676 1.772-1.1 2.62-2.16 4.753-4.35 9.49-6.57 14.21-.306.805-.912 1.46-1.69 1.83l-1.21.05zM118 20c-.304-.825-1.072-1.388-1.95-1.43-.384-.058-.772-.088-1.16-.09h-4.75l.26-.34c2.08-2.42 4.21-4.82 6.21-7.26.395-.47.703-1.004.91-1.58.147-.32.124-.694-.06-.995-.185-.3-.507-.49-.86-.505-.66-.117-1.33-.18-2-.19h-7.88c-.654.008-1.303.106-1.93.29-.792.2-1.32.947-1.24 1.76-.038.795.482 1.51 1.25 1.72.496.156 1.01.243 1.53.26h4.47l-.3.36c-2.12 2.48-4.233 4.967-6.34 7.46-.225.263-.414.556-.56.87-.276.408-.31.934-.087 1.374.222.44.665.725 1.157.746.18.045.364.072.55.08 1.77.06 3.57.06 5.3.06s3.45 0 5.18-.07c1.023.074 1.967-.55 2.3-1.52v-1zm-58.65-8.1c-.003-.053-.003-.107 0-.16v-5h.28c1.07-.015 2.137.035 3.2.15.795.065 1.508.515 1.907 1.206.4.69.434 1.533.093 2.254-.367.957-1.295 1.58-2.32 1.56-1 .06-2 0-3.1 0l-.06-.01zm.06 4.26h.3c1.4-.05 2.79 0 4.18-.05 1.52-.06 2.988-.568 4.22-1.46C71 12.55 70.93 8.1 69.69 6c-1.065-1.806-2.917-3.006-5-3.24-2.584-.285-5.188-.332-7.78-.14-.59-.064-1.18.112-1.636.488-.457.377-.744.922-.794 1.512-.06.303-.09.61-.09.92V19.8c.012.56.117 1.114.31 1.64.417.833 1.268 1.36 2.2 1.36.932 0 1.783-.527 2.2-1.36.178-.502.28-1.028.3-1.56V16.2l.01-.04zM75.8 15c-.076-1.282.562-2.502 1.66-3.17.908-.544 2.036-.57 2.967-.067.932.503 1.53 1.46 1.573 2.517.123.884-.005 1.785-.37 2.6-.42 1.08-1.47 1.787-2.63 1.77-1.128.067-2.19-.536-2.71-1.54-.348-.647-.517-1.376-.49-2.11zm6.44 6.27c.2.28.35.52.53.73.618.68 1.565.953 2.45.71.816-.153 1.452-.793 1.6-1.61.12-.49.183-.994.19-1.5v-9.03c.02-.28.02-.56 0-.84-.027-.87-.51-1.665-1.27-2.09-1.044-.475-2.275-.225-3.05.62-.14.16-.27.33-.39.48-.35-.294-.72-.562-1.11-.8-2.023-1.073-4.46-1.005-6.42.18-1.962 1.14-3.358 3.047-3.852 5.26-.494 2.215-.04 4.535 1.252 6.4 1.6 2.45 4.556 3.647 7.41 3 1.025-.188 1.96-.708 2.66-1.48v-.03zM0 13.89V14c.305 1.834 1.188 3.523 2.52 4.82.51.49 1.08 1 1.62 1.49l.08-.09-.36-.52c-1.28-1.743-1.82-3.92-1.5-6.06.388-2.194 1.522-4.186 3.21-5.64 2.158-1.955 4.733-3.39 7.53-4.2 4.854-1.518 10.012-1.793 15-.8 3.075.51 6.012 1.648 8.63 3.34l2 1.52c-.08-.137-.173-.264-.28-.38-1.11-1.238-2.423-2.28-3.88-3.08-3.164-1.736-6.648-2.81-10.24-3.16-4.25-.52-8.558-.21-12.69.91-2.876.71-5.57 2.02-7.9 3.85C2.032 7.3.796 9.122.22 11.19L0 12v1.89z" fill="#8BC42F"/></g></svg>