<svg xmlns="http://www.w3.org/2000/svg" viewBox="0 0 143 112">
    <g fill="none" fill-rule="nonzero">
        <path fill="#231F20" d="M26.165 110.49v-7.346c.164-2.409-1.648-4.495-4.047-4.662h-.545a4.51 4.51 0 0 0-4.1 2.084 4.277 4.277 0 0 0-3.865-2.084 3.861 3.861 0 0 0-3.425 1.745v-1.459H7.588v11.721h2.595v-6.433a2.743 2.743 0 0 1 .523-2.039 2.722 2.722 0 0 1 1.812-1.06h.519c1.686 0 2.594 1.093 2.594 3.099v6.511h2.595v-6.511a2.759 2.759 0 0 1 2.361-3.1h.493c1.738 0 2.595 1.094 2.595 3.1v6.511l2.49-.078zm37.96-11.722h-4.178v-3.542h-2.595v3.568h-2.309v2.319h2.361v5.391c0 2.605 1.038 4.35 4.048 4.35a5.95 5.95 0 0 0 3.165-.912l-.726-2.188a4.683 4.683 0 0 1-2.257.652c-1.22 0-1.687-.782-1.687-1.954v-5.34h4.151l.026-2.344zm21.664-.286a3.448 3.448 0 0 0-3.087 1.719v-1.433h-2.595v11.721h2.595v-6.563c0-1.928.83-3.022 2.439-3.022a4.137 4.137 0 0 1 1.582.287l.779-2.449a5.43 5.43 0 0 0-1.817-.312l.104.052zm-32.77 1.224a8.717 8.717 0 0 0-4.774-1.224c-2.957 0-4.877 1.432-4.877 3.75 0 1.902 1.427 3.1 4.021 3.465l1.22.182c1.4.208 2.05.573 2.05 1.224s-.935 1.433-2.595 1.433a6.21 6.21 0 0 1-3.892-1.224l-1.22 1.98a8.41 8.41 0 0 0 5.06 1.51c3.373 0 5.319-1.589 5.319-3.829s-1.531-3.152-4.074-3.516l-1.22-.183c-1.089-.156-1.971-.364-1.971-1.146 0-.781.83-1.38 2.231-1.38a7.502 7.502 0 0 1 3.659 1.016l1.063-2.058zm68.057-1.224a3.448 3.448 0 0 0-3.088 1.719v-1.433h-2.594v11.721h2.594v-6.563c0-1.928.83-3.022 2.439-3.022a4.137 4.137 0 0 1 1.583.287l.778-2.449a5.43 5.43 0 0 0-1.816-.312l.104.052zm-32.744 6.12a5.926 5.926 0 0 0 1.568 4.26 5.88 5.88 0 0 0 4.114 1.888h.545a6.082 6.082 0 0 0 4.203-1.407l-1.22-2.057a5.176 5.176 0 0 1-3.06 1.041 3.772 3.772 0 0 1-3.322-3.75 3.772 3.772 0 0 1 3.321-3.751 5.176 5.176 0 0 1 3.062 1.042l1.22-2.058a6.082 6.082 0 0 0-4.204-1.406 5.876 5.876 0 0 0-4.266 1.489 5.921 5.921 0 0 0-1.961 4.085v.625zm23.792 0v-5.834h-2.594v1.433a4.43 4.43 0 0 0-3.659-1.72c-3.374 0-6.11 2.747-6.11 6.135s2.736 6.134 6.11 6.134a4.43 4.43 0 0 0 3.659-1.72v1.433h2.594v-5.86zm-9.444 0a3.509 3.509 0 0 1 3.571-3.372 3.51 3.51 0 0 1 3.431 3.516 3.51 3.51 0 0 1-3.43 3.516 3.509 3.509 0 0 1-3.572-3.373s.104-.182.104-.286h-.104zm-30.668-6.12a6.108 6.108 0 0 0-5.246 3.146 6.155 6.155 0 0 0 .09 6.134 6.106 6.106 0 0 0 5.338 2.988 7.091 7.091 0 0 0 4.851-1.59l-1.22-1.9a5.54 5.54 0 0 1-3.398 1.224 3.246 3.246 0 0 1-3.503-2.865h8.666v-.99a5.588 5.588 0 0 0-1.42-4.3 5.543 5.543 0 0 0-4.132-1.821l-.026-.026zm0 2.292a2.911 2.911 0 0 1 2.958 2.839h-6.098a3.014 3.014 0 0 1 3.114-2.839h.026zm63.645 3.88V94.08h-2.439v6.12a4.43 4.43 0 0 0-3.658-1.718c-3.375 0-6.11 2.746-6.11 6.134 0 3.388 2.735 6.134 6.11 6.134a4.43 4.43 0 0 0 3.658-1.72v1.433h2.44v-5.808zm4.23 4.168c.47-.008.9.27 1.09.704a1.176 1.176 0 0 1-.623 1.536 1.137 1.137 0 0 1-.468 0 1.22 1.22 0 0 1-1.09-.703 1.15 1.15 0 0 1 0-.912 1.193 1.193 0 0 1 1.142-.703l-.052.078zm0 2.084c.12.026.243.026.363 0a.908.908 0 0 0 .285-.208.888.888 0 0 0-.285-1.433h-.727a.887.887 0 0 0 .39 1.693l-.027-.052zm0-1.459a.491.491 0 0 1 .31 0 .314.314 0 0 1 0 .26.288.288 0 0 1 0 .21.414.414 0 0 1-.259 0l.364.416h-.286l-.337-.417v.417h-.234v-.938l.441.052zm-.26.209v.286h.415-.156l-.259-.286zm-13.44-4.975a3.509 3.509 0 0 1 3.571-3.372 3.51 3.51 0 0 1 3.432 3.515 3.51 3.51 0 0 1-3.432 3.516 3.509 3.509 0 0 1-3.571-3.373s.078-.234.104-.338l-.104.052zm-85.777 0v-5.913h-2.595v1.433a4.43 4.43 0 0 0-3.658-1.72c-3.375 0-6.11 2.747-6.11 6.135s2.735 6.134 6.11 6.134a4.43 4.43 0 0 0 3.658-1.72v1.433h2.595v-5.782zm-9.445 0a3.274 3.274 0 0 1 3.344-3.125 3.276 3.276 0 0 1 3.191 3.281 3.276 3.276 0 0 1-3.191 3.281 3.274 3.274 0 0 1-3.344-3.125v-.312z"/>
        <path fill="#EB001B" d="M54.628 44.28c-.018-13.55 6.173-26.353 16.787-34.72C53.383-4.67 27.49-2.603 11.926 14.312c-15.56 16.914-15.56 42.992 0 59.907 15.563 16.914 41.46 18.982 59.49 4.753-10.608-8.362-16.798-21.155-16.788-34.694z"/>
        <path fill="#F79E1B" d="M142.585 44.28c-.01 16.894-9.624 32.303-24.762 39.685a43.84 43.84 0 0 1-46.382-4.992c10.606-8.37 16.797-21.164 16.797-34.707S82.047 17.929 71.441 9.559a43.84 43.84 0 0 1 46.382-4.992c15.138 7.383 24.752 22.79 24.762 39.686v.026z"/>
        <path fill="#FF5F00" d="M71.415 78.869c-10.56-8.399-16.718-21.182-16.718-34.707 0-13.525 6.158-26.308 16.718-34.707 10.606 8.37 16.798 21.164 16.798 34.707S82.02 70.499 71.415 78.869z"/>
        <path fill="#F79E1B" d="M138.382 71.498v-1.433h.57v-.286H137.5v.286h.623v1.433h.26zm2.828 0v-1.72h-.441l-.52 1.225-.518-1.224h-.39v1.719h.312v-1.172l.467 1.12h.337l.467-1.12v1.302l.286-.13z"/>
    </g>
</svg>
