<svg xmlns="http://www.w3.org/2000/svg" viewBox="0 0 217 37">
    <path fill="#8DC641" fill-rule="evenodd" d="M212.847 32.282a2.105 2.105 0 0 0-.359-.4 1.66 1.66 0 0 0-.406-.232c.424-.025.818-.22 1.093-.54.27-.276.416-.648.406-1.032a1.817 1.817 0 0 0-.234-.817c-.13-.21-.3-.393-.5-.54a2.207 2.207 0 0 0-.874-.231h-2.935v5.427h1.14v-2.19h.328c.278-.006.551.075.78.232.322.33.586.709.78 1.125l.453.91h1.359l-.687-1.126c-.172-.339-.312-.493-.36-.6l.016.014zm-1.014-1.449a5.51 5.51 0 0 1-1.234.093h-.452v-1.542h.452c.414-.01.828.02 1.234.093a.56.56 0 0 1 .359.277.719.719 0 0 1 .14.401.749.749 0 0 1-.14.447 1.344 1.344 0 0 1-.36.231zm4.121-2.112a4.657 4.657 0 0 0-1.967-1.896c-2.518-1.396-5.705-.555-7.181 1.896a5.375 5.375 0 0 0-.734 2.621c0 .902.236 1.788.687 2.575a5.017 5.017 0 0 0 1.967 1.942 5.366 5.366 0 0 0 5.214 0 5.043 5.043 0 0 0 1.967-1.942 5.16 5.16 0 0 0 .687-2.575 4.152 4.152 0 0 0-.64-2.682v.061zm-.874 4.625a3.894 3.894 0 0 1-1.561 1.542 4.372 4.372 0 0 1-4.215 0 3.894 3.894 0 0 1-1.562-1.542 4.137 4.137 0 0 1-.546-2.081c0-.743.187-1.474.546-2.128a3.894 3.894 0 0 1 1.562-1.541 4.372 4.372 0 0 1 4.215 0c.67.342 1.215.88 1.56 1.541a3.996 3.996 0 0 1 0 4.194v.015zM188.759 0l-13.364.092-4.527 26.84h-17.953l.92-5.55h10.57l1.28-7.507h-10.569l1-5.704h11.442L168.885 0h-22.933l-4.402 26.039h-8.243L137.709 0h-11.49l-4.45 26.039h-8.18L117.976 0h-11.443l-4.527 26.84H83.77l.968-5.55H95.23l1.374-7.415H86.019l.968-5.735h11.366L99.804 0H30.13l-3.715 21.922L18.359 0H5.995L0 35.55h11.443l3.747-22.107 7.134 22.108h158.192l2.654-15.664 5.308 15.664h12.036l-5.589-14.492c9.367 0 9.71-10.792 9.71-10.792S206.073 0 188.76 0zM54.422 26.933H37.077l.921-5.55h10.57l1.28-7.508h-10.57l.968-5.735h17.345l-3.17 18.793zm17.953 0h-6.448L69.05 8.202h6.447l-3.122 18.73zm114.963-10.684h-3.481l1.42-8.386h3.794c3.528 0 3.794 4.054 3.794 4.054-.318 2.702-2.79 4.64-5.527 4.332z"/>
</svg>
